<svg width="148" height="171" viewBox="0 0 148 171" fill="none" xmlns="http://www.w3.org/2000/svg">
  <path
    d="M148 97.002C148 107.992 145.6 118.432 141.29 127.812C129.61 153.302 103.87 171.002 74 171.002C44.13 171.002 18.39 153.302 6.71 127.812C2.4 118.432 0 107.992 0 97.002C0 56.132 33.13 23.002 74 23.002C114.87 23.002 148 56.132 148 97.002Z"
    fill="#F0F1F2" />
  <mask id="mask0_437_5304" style="mask-type:alpha" maskUnits="userSpaceOnUse" x="0" y="0"
    width="148" height="172">
    <path
      d="M148 40.5C148 51.49 145.6 118.43 141.29 127.81C129.61 153.3 103.87 171 74 171C44.13 171 18.39 153.3 6.71 127.81C2.4 118.43 0 51.49 0 40.5C0 -0.369999 33.13 0.000117124 74 0.000117124C114.87 0.000117124 148 -0.369999 148 40.5Z"
      fill="#F0F1F2" />
  </mask>
  <g mask="url(#mask0_437_5304)">
    <g filter="url(#filter0_d_437_5304)">
      <path
        d="M17.8926 19.623C17.8926 18.726 18.6186 18 19.5156 18H128.27C129.167 18 129.893 18.726 129.893 19.623V169.826C129.893 170.723 129.167 171.449 128.27 171.449H19.5156C18.6186 171.449 17.8926 170.723 17.8926 169.826V19.623Z"
        fill="#5BA7B1" />
      <path d="M129.893 75.2754H17.8926V105.71H129.893V75.2754Z" fill="#7FBEC6" />
      <path
        d="M17.8926 105.71H129.893V169.826C129.893 170.723 129.167 171.449 128.27 171.449H19.5156C18.6186 171.449 17.8926 170.723 17.8926 169.826V105.71Z"
        fill="white" />
      <path d="M43.9867 75.1287H40.0017L37.9727 63.0117H41.9497L42.1287 64.0827L43.9867 75.1287Z"
        fill="white" />
      <path d="M106.741 105.851H103.2L100.795 91.5127H104.335L106.741 105.851Z" fill="#6D493C" />
      <path
        d="M72.4862 59.8274H41.4172L36.3672 29.7354H65.1902C66.4872 29.7354 67.5942 30.6724 67.8092 31.9514L72.4862 59.8274Z"
        fill="white" />
      <path
        d="M41.4175 59.8274H37.4375L32.9075 32.8294C32.6355 31.2104 33.8835 29.7344 35.5255 29.7344H36.3675L41.4175 59.8274Z"
        fill="white" />
      <path
        d="M112.682 63.0302L101.143 72.4852L101.585 75.1262H93.2297L108.012 63.0122H86.2207V59.8262H112.682V63.0302Z"
        fill="#6D493C" />
      <path d="M74.7053 94.1517L60.4273 105.851H55.7363L73.2323 91.5127H74.2603L74.7053 94.1517Z"
        fill="#6D493C" />
      <path
        d="M74.0492 69.1417L70.9371 71.6927L66.7462 75.1267H43.9841L41.9521 63.0127H73.0201L74.0492 69.1417Z"
        fill="white" />
      <path
        d="M86.2199 63.0132L74.6169 72.5222L80.2089 105.85H76.6689L71.5139 75.1262L71.5049 75.0712L71.4379 75.1262L33.9449 105.85H29.2539L81.5289 63.0122H32.6729V59.8262H86.2199V63.0132Z"
        fill="#AF5947" />
      <path
        d="M117.679 77.7839V91.5139H88.4932V75.1279H115.024C116.49 75.1279 117.679 76.3169 117.679 77.7839Z"
        fill="#D2D5D9" />
      <path d="M88.4937 75.1279V91.5129H77.8027L75.0537 75.1279H88.4937Z" fill="#D2D5D9" />
      <path d="M74.2614 91.5142H51.4424L71.5034 75.0732L74.2614 91.5142Z" fill="#D2D5D9" />
      <path d="M66.7439 75.1299L46.73 91.5159H42.753L40.002 75.1299H66.7439Z" fill="#D2D5D9" />
      <path
        d="M76.8926 117H30.8926C29.7876 117 28.8926 117.895 28.8926 119C28.8926 120.105 29.7876 121 30.8926 121H76.8926C77.9976 121 78.8926 120.105 78.8926 119C78.8926 117.895 77.9966 117 76.8926 117Z"
        fill="#D2D5D9" />
      <path
        d="M63.8926 132H33.8926C31.1316 132 28.8926 134.239 28.8926 137C28.8926 139.761 31.1316 142 33.8926 142H63.8926C66.6536 142 68.8926 139.761 68.8926 137C68.8926 134.239 66.6536 132 63.8926 132Z"
        fill="#00735C" />
    </g>
  </g>
  <defs>
    <filter id="filter0_d_437_5304" x="7.89258" y="10" width="132" height="173.449"
      filterUnits="userSpaceOnUse" color-interpolation-filters="sRGB">
      <feFlood flood-opacity="0" result="BackgroundImageFix" />
      <feColorMatrix in="SourceAlpha" type="matrix"
        values="0 0 0 0 0 0 0 0 0 0 0 0 0 0 0 0 0 0 127 0" result="hardAlpha" />
      <feOffset dy="2" />
      <feGaussianBlur stdDeviation="5" />
      <feColorMatrix type="matrix" values="0 0 0 0 0 0 0 0 0 0 0 0 0 0 0 0 0 0 0.3 0" />
      <feBlend mode="normal" in2="BackgroundImageFix" result="effect1_dropShadow_437_5304" />
      <feBlend mode="normal" in="SourceGraphic" in2="effect1_dropShadow_437_5304" result="shape" />
    </filter>
  </defs>
</svg>